<svg width="1024" height="1024" viewBox="0 0 1024 1024" fill="none" xmlns="http://www.w3.org/2000/svg">
<g clip-path="url(#clip0_1_33)">
<rect width="1024" height="1024" fill="white"/>
<rect x="4.26667" y="4.26667" width="1015.47" height="1015.47" fill="#0F1E1C"/>
<path d="M211.968 340.64H480.666V383.238H369.254V722.933H323.379V383.238H211.968V340.64ZM682.901 687.981C698.557 687.981 711.846 685.432 722.769 680.335C734.056 674.874 743.158 667.774 750.076 659.036C757.358 649.934 762.637 639.739 765.914 628.452C769.555 616.801 771.375 604.604 771.375 591.861V585.308H817.25V591.861C817.25 611.158 814.337 629.362 808.512 646.475C802.687 663.223 794.131 677.968 782.844 690.711C771.557 703.09 757.54 712.921 740.792 720.203C724.043 727.12 704.747 730.579 682.901 730.579C640.667 730.579 607.717 717.29 584.051 690.711C560.385 664.133 548.553 625.358 548.553 574.385V489.188C548.553 439.672 560.385 401.261 584.051 373.954C607.717 346.647 640.667 332.994 682.901 332.994C704.747 332.994 724.043 336.635 740.792 343.917C757.54 350.834 771.557 360.665 782.844 373.408C794.131 385.787 802.687 400.533 808.512 417.645C814.337 434.393 817.25 452.415 817.25 471.712V478.266H771.375V471.712C771.011 459.333 769.008 447.318 765.368 435.667C762.091 424.016 756.811 413.822 749.53 405.084C742.612 395.981 733.692 388.882 722.769 383.784C711.846 378.323 698.557 375.593 682.901 375.593C653.41 375.593 631.201 386.333 616.273 407.814C601.71 429.296 594.428 457.513 594.428 492.465V571.108C594.428 608.609 601.71 637.554 616.273 657.943C631.201 677.968 653.41 687.981 682.901 687.981Z" fill="#EEDA20"/>
<rect x="4.26667" y="4.26667" width="1015.47" height="1015.47" stroke="url(#paint0_linear_1_33)" stroke-width="8.53333"/>
</g>
<defs>
<linearGradient id="paint0_linear_1_33" x1="512" y1="0" x2="512" y2="1024" gradientUnits="userSpaceOnUse">
<stop stop-color="#0F1E1C"/>
<stop offset="1"/>
</linearGradient>
<clipPath id="clip0_1_33">
<rect width="1024" height="1024" fill="white"/>
</clipPath>
</defs>
</svg>
